# xmcd CD database file
# Copyright (C) 1995-1998 Ti Kan
#
# Track frame offsets:
#	150
#	15439
#	30552
#	44812
#	57312
#	75528
#	89316
#	115224
#	136375
#	149880
#	166512
#	187816
#
# Disc length: 2618 seconds
#
# Revision: 1
# Processed by: cddbd v1.4PL0 Copyright (c) Steve Scherf et al.
# Submitted via: CDex 1.30Release
#
DISCID=9a0a380c
DTITLE=Fuzzy Whitener - Off The Chain
DYEAR=2002
DGENRE=Blues
TTITLE0=Cherry Street Shuffle
TTITLE1=Mikayla
TTITLE2=Catfish
TTITLE3=Off The Chain
TTITLE4=Down Home In The Can(Corsicana)
TTITLE5=Sandra Jean
TTITLE6=Mary's Song
TTITLE7=Clover Club Romp
TTITLE8=Hot Dog
TTITLE9=In This World
TTITLE10=Uptown
TTITLE11=Tunisian Sunset
EXTD=YEAR: 2002 ID3G:   0
EXTT0=
EXTT1=
EXTT2=
EXTT3=
EXTT4=
EXTT5=
EXTT6=
EXTT7=
EXTT8=
EXTT9=
EXTT10=
EXTT11=
PLAYORDER=
